<svg width="185" height="14" viewBox="0 0 185 14" fill="none" xmlns="http://www.w3.org/2000/svg">
<path d="M9.962 3.982H9.89L8.918 5.98L6.344 10.732L3.77 5.98L2.798 3.982H2.726V13H0.476V0.436H3.158L6.38 6.574H6.452L9.638 0.436H12.212V13H9.962V3.982ZM22.9473 13L21.9393 9.796H17.4753L16.4853 13H14.0733L18.2853 0.436H21.2373L25.4133 13H22.9473ZM19.7433 2.596H19.6533L18.0513 7.762H21.3633L19.7433 2.596ZM27.2651 13V0.436H32.9171C33.4931 0.436 34.0091 0.532 34.4651 0.723999C34.9331 0.903999 35.3291 1.168 35.6531 1.516C35.9771 1.852 36.2231 2.26 36.3911 2.74C36.5591 3.22 36.6431 3.748 36.6431 4.324C36.6431 4.912 36.5591 5.446 36.3911 5.926C36.2231 6.394 35.9771 6.802 35.6531 7.15C35.3291 7.486 34.9331 7.75 34.4651 7.942C34.0091 8.122 33.4931 8.212 32.9171 8.212H29.6411V13H27.2651ZM29.6411 6.16H32.7011C33.1571 6.16 33.5171 6.04 33.7811 5.8C34.0451 5.548 34.1771 5.194 34.1771 4.738V3.91C34.1771 3.454 34.0451 3.106 33.7811 2.866C33.5171 2.626 33.1571 2.506 32.7011 2.506H29.6411V6.16ZM42.6182 8.662V6.376H47.7662V8.662H42.6182ZM59.4243 13.216C58.5963 13.216 57.8463 13.084 57.1743 12.82C56.5143 12.544 55.9443 12.136 55.4643 11.596C54.9963 11.056 54.6363 10.39 54.3843 9.598C54.1323 8.794 54.0063 7.864 54.0063 6.808C54.0063 5.752 54.1323 4.816 54.3843 4C54.6363 3.172 54.9963 2.482 55.4643 1.93C55.9443 1.366 56.5143 0.939999 57.1743 0.651999C57.8463 0.363999 58.5963 0.219999 59.4243 0.219999C60.5523 0.219999 61.4883 0.459999 62.2323 0.94C62.9763 1.42 63.5703 2.146 64.0143 3.118L61.9803 4.198C61.8003 3.634 61.5063 3.184 61.0983 2.848C60.6903 2.5 60.1323 2.326 59.4243 2.326C58.5363 2.326 57.8283 2.626 57.3003 3.226C56.7843 3.826 56.5263 4.666 56.5263 5.746V7.726C56.5263 8.818 56.7843 9.658 57.3003 10.246C57.8283 10.822 58.5363 11.11 59.4243 11.11C60.1323 11.11 60.7083 10.918 61.1523 10.534C61.6083 10.15 61.9383 9.676 62.1423 9.112L64.0683 10.246C63.6123 11.182 63.0063 11.914 62.2503 12.442C61.4943 12.958 60.5523 13.216 59.4243 13.216ZM73.7657 13L72.7577 9.796H68.2937L67.3037 13H64.8917L69.1037 0.436H72.0557L76.2317 13H73.7657ZM70.5617 2.596H70.4717L68.8697 7.762H72.1817L70.5617 2.596ZM81.9894 13.216C80.9094 13.216 79.9914 13.024 79.2354 12.64C78.4914 12.256 77.8494 11.752 77.3094 11.128L78.9114 9.58C79.3434 10.084 79.8234 10.468 80.3514 10.732C80.8914 10.996 81.4854 11.128 82.1334 11.128C82.8654 11.128 83.4174 10.972 83.7894 10.66C84.1614 10.336 84.3474 9.904 84.3474 9.364C84.3474 8.944 84.2274 8.602 83.9874 8.338C83.7474 8.074 83.2974 7.882 82.6374 7.762L81.4494 7.582C78.9414 7.186 77.6874 5.968 77.6874 3.928C77.6874 3.364 77.7894 2.854 77.9934 2.398C78.2094 1.942 78.5154 1.552 78.9114 1.228C79.3074 0.903999 79.7814 0.657999 80.3334 0.489999C80.8974 0.309999 81.5334 0.219999 82.2414 0.219999C83.1894 0.219999 84.0174 0.375999 84.7254 0.688C85.4334 0.999999 86.0394 1.462 86.5434 2.074L84.9234 3.604C84.6114 3.22 84.2334 2.908 83.7894 2.668C83.3454 2.428 82.7874 2.308 82.1154 2.308C81.4314 2.308 80.9154 2.44 80.5674 2.704C80.2314 2.956 80.0634 3.316 80.0634 3.784C80.0634 4.264 80.2014 4.618 80.4774 4.846C80.7534 5.074 81.1974 5.242 81.8094 5.35L82.9794 5.566C84.2514 5.794 85.1874 6.202 85.7874 6.79C86.3994 7.366 86.7054 8.176 86.7054 9.22C86.7054 9.82 86.5974 10.366 86.3814 10.858C86.1774 11.338 85.8714 11.758 85.4634 12.118C85.0674 12.466 84.5754 12.736 83.9874 12.928C83.4114 13.12 82.7454 13.216 81.9894 13.216ZM89.0873 13V0.436H97.3673V2.542H91.4633V5.584H96.6833V7.69H91.4633V10.894H97.3673V13H89.0873ZM111.748 7.69H106.51V13H104.134V0.436H106.51V5.584H111.748V0.436H114.124V13H111.748V7.69ZM124.848 13L123.84 9.796H119.376L118.386 13H115.974L120.186 0.436H123.138L127.314 13H124.848ZM121.644 2.596H121.554L119.952 7.762H123.264L121.644 2.596ZM132.765 6.556L131.469 3.946H131.415V13H129.165V0.436H131.775L135.555 6.88L136.851 9.49H136.905V0.436H139.155V13H136.545L132.765 6.556ZM142.103 0.436H146.675C147.491 0.436 148.229 0.567999 148.889 0.831999C149.561 1.096 150.131 1.492 150.599 2.02C151.079 2.536 151.445 3.19 151.697 3.982C151.961 4.762 152.093 5.674 152.093 6.718C152.093 7.762 151.961 8.68 151.697 9.472C151.445 10.252 151.079 10.906 150.599 11.434C150.131 11.95 149.561 12.34 148.889 12.604C148.229 12.868 147.491 13 146.675 13H142.103V0.436ZM146.675 10.894C147.563 10.894 148.265 10.636 148.781 10.12C149.309 9.592 149.573 8.788 149.573 7.708V5.728C149.573 4.648 149.309 3.85 148.781 3.334C148.265 2.806 147.563 2.542 146.675 2.542H144.479V10.894H146.675ZM154.513 13V0.436H156.889V10.894H161.839V13H154.513ZM163.9 13V0.436H172.18V2.542H166.276V5.584H171.496V7.69H166.276V10.894H172.18V13H163.9ZM177.069 13H174.693V0.436H180.363C180.939 0.436 181.455 0.526 181.911 0.705999C182.367 0.885999 182.751 1.15 183.063 1.498C183.387 1.834 183.633 2.242 183.801 2.722C183.981 3.202 184.071 3.736 184.071 4.324C184.071 5.188 183.873 5.932 183.477 6.556C183.093 7.18 182.511 7.624 181.731 7.888L184.305 13H181.659L179.319 8.158H177.069V13ZM180.129 6.16C180.585 6.16 180.945 6.04 181.209 5.8C181.473 5.548 181.605 5.194 181.605 4.738V3.91C181.605 3.454 181.473 3.106 181.209 2.866C180.945 2.626 180.585 2.506 180.129 2.506H177.069V6.16H180.129Z" fill="#F3F7F8"/>
</svg>
