<svg width="24" height="24" viewBox="0 0 24 24" fill="none" xmlns="http://www.w3.org/2000/svg">
<path opacity="0.3" d="M11 6C11 5.44772 11.4477 5 12 5C12.5523 5 13 5.44772 13 6L13 18C13 18.5523 12.5523 19 12 19C11.4477 19 11 18.5523 11 18L11 6Z" fill="#829496"/>
<path d="M17.2929 11.2929C17.6834 10.9024 18.3166 10.9024 18.7071 11.2929C19.0976 11.6834 19.0976 12.3166 18.7071 12.7071L12.7071 18.7071C12.3285 19.0857 11.7189 19.0989 11.3243 18.7372L5.32428 13.2372C4.91716 12.864 4.88965 12.2314 5.26285 11.8243C5.63604 11.4172 6.26861 11.3897 6.67572 11.7628L11.9699 16.6159L17.2929 11.2929Z" fill="#829496"/>
</svg>
