<svg width="24" height="24" viewBox="0 0 24 24" fill="none" xmlns="http://www.w3.org/2000/svg">
<path d="M16.032 5.68723L5.75769 15.9457C5.12118 16.5813 5.12038 17.6125 5.75592 18.249C5.75621 18.2493 5.75651 18.2496 5.7568 18.2499C6.39283 18.8859 7.42403 18.8859 8.06005 18.2499C8.06035 18.2496 8.06064 18.2493 8.06094 18.249L18.3195 7.9747C18.9503 7.34289 18.9499 6.31943 18.3186 5.68811C17.6873 5.05678 16.6638 5.05639 16.032 5.68723Z" fill="white"/>
<path opacity="0.3" fill-rule="evenodd" clip-rule="evenodd" d="M9.85714 6.92857C9.85714 8.54731 8.54695 9.85714 6.93006 9.85714C5.31317 9.85714 4 8.54731 4 6.92857C4 5.30984 5.31317 4 6.93006 4C8.54695 4 9.85714 5.30984 9.85714 6.92857ZM20 17.0714C20 18.6902 18.6898 20 17.0729 20C15.456 20 14.1429 18.6902 14.1429 17.0714C14.1429 15.4497 15.456 14.1429 17.0729 14.1429C18.6898 14.1429 20 15.4497 20 17.0714Z" fill="white"/>
</svg>
