<svg width="99" height="14" viewBox="0 0 99 14" fill="none" xmlns="http://www.w3.org/2000/svg">
<path d="M9.962 3.982H9.89L8.918 5.98L6.344 10.732L3.77 5.98L2.798 3.982H2.726V13H0.476V0.436H3.158L6.38 6.574H6.452L9.638 0.436H12.212V13H9.962V3.982ZM22.4793 11.848C22.2993 12.004 22.0953 12.166 21.8673 12.334C21.6393 12.49 21.3753 12.634 21.0753 12.766C20.7873 12.898 20.4573 13.006 20.0853 13.09C19.7253 13.174 19.3173 13.216 18.8613 13.216C18.1893 13.216 17.5893 13.126 17.0613 12.946C16.5453 12.766 16.1133 12.52 15.7653 12.208C15.4173 11.896 15.1533 11.53 14.9733 11.11C14.7933 10.678 14.7033 10.216 14.7033 9.724C14.7033 9.28 14.7693 8.89 14.9013 8.554C15.0333 8.206 15.2133 7.894 15.4413 7.618C15.6693 7.33 15.9393 7.078 16.2513 6.862C16.5633 6.634 16.8933 6.418 17.2413 6.214C16.8693 5.794 16.5393 5.338 16.2513 4.846C15.9753 4.342 15.8373 3.802 15.8373 3.226C15.8373 2.818 15.9213 2.434 16.0893 2.074C16.2573 1.702 16.4973 1.378 16.8093 1.102C17.1333 0.826 17.5173 0.61 17.9613 0.454C18.4053 0.297999 18.9033 0.219999 19.4553 0.219999C19.9473 0.219999 20.4033 0.285999 20.8233 0.417999C21.2433 0.549999 21.6033 0.735999 21.9033 0.975999C22.2153 1.216 22.4553 1.51 22.6233 1.858C22.8033 2.206 22.8933 2.602 22.8933 3.046C22.8933 3.442 22.8213 3.808 22.6773 4.144C22.5453 4.468 22.3593 4.768 22.1193 5.044C21.8793 5.308 21.6033 5.56 21.2913 5.8C20.9793 6.028 20.6433 6.244 20.2833 6.448L22.4793 8.824C22.6473 8.416 22.7733 7.984 22.8573 7.528C22.9533 7.072 23.0133 6.616 23.0373 6.16H25.8633V8.086H24.6933C24.5133 8.902 24.2373 9.646 23.8653 10.318L26.3493 13H23.5233L22.4793 11.848ZM19.3833 2.002C18.9993 2.002 18.6813 2.116 18.4293 2.344C18.1773 2.56 18.0513 2.854 18.0513 3.226V3.352C18.0513 3.628 18.1353 3.904 18.3033 4.18C18.4833 4.444 18.7593 4.786 19.1313 5.206C19.5873 4.93 19.9593 4.642 20.2473 4.342C20.5473 4.042 20.6973 3.694 20.6973 3.298V3.19C20.6973 2.806 20.5653 2.512 20.3013 2.308C20.0493 2.104 19.7433 2.002 19.3833 2.002ZM19.1673 11.29C19.5993 11.29 19.9893 11.224 20.3373 11.092C20.6853 10.96 20.9913 10.78 21.2553 10.552L18.3933 7.456C17.9733 7.708 17.6433 7.978 17.4033 8.266C17.1753 8.542 17.0613 8.896 17.0613 9.328V9.526C17.0613 10.054 17.2413 10.48 17.6013 10.804C17.9613 11.128 18.4833 11.29 19.1673 11.29ZM35.8497 13L34.8417 9.796H30.3777L29.3877 13H26.9757L31.1877 0.436H34.1397L38.3157 13H35.8497ZM32.6457 2.596H32.5557L30.9537 7.762H34.2657L32.6457 2.596ZM44.4213 13V0.436H52.5033V2.542H46.7973V5.584H51.7653V7.69H46.7973V13H44.4213ZM59.2134 13.216C58.3854 13.216 57.6354 13.084 56.9634 12.82C56.3034 12.544 55.7334 12.136 55.2534 11.596C54.7854 11.056 54.4254 10.39 54.1734 9.598C53.9214 8.794 53.7954 7.864 53.7954 6.808C53.7954 5.752 53.9214 4.816 54.1734 4C54.4254 3.172 54.7854 2.482 55.2534 1.93C55.7334 1.366 56.3034 0.939999 56.9634 0.651999C57.6354 0.363999 58.3854 0.219999 59.2134 0.219999C60.3414 0.219999 61.2774 0.459999 62.0214 0.94C62.7654 1.42 63.3594 2.146 63.8034 3.118L61.7694 4.198C61.5894 3.634 61.2954 3.184 60.8874 2.848C60.4794 2.5 59.9214 2.326 59.2134 2.326C58.3254 2.326 57.6174 2.626 57.0894 3.226C56.5734 3.826 56.3154 4.666 56.3154 5.746V7.726C56.3154 8.818 56.5734 9.658 57.0894 10.246C57.6174 10.822 58.3254 11.11 59.2134 11.11C59.9214 11.11 60.4974 10.918 60.9414 10.534C61.3974 10.15 61.7274 9.676 61.9314 9.112L63.8574 10.246C63.4014 11.182 62.7954 11.914 62.0394 12.442C61.2834 12.958 60.3414 13.216 59.2134 13.216ZM70.5337 13.216C69.7057 13.216 68.9557 13.084 68.2837 12.82C67.6237 12.544 67.0537 12.136 66.5737 11.596C66.1057 11.056 65.7457 10.39 65.4937 9.598C65.2417 8.794 65.1157 7.864 65.1157 6.808C65.1157 5.752 65.2417 4.816 65.4937 4C65.7457 3.172 66.1057 2.482 66.5737 1.93C67.0537 1.366 67.6237 0.939999 68.2837 0.651999C68.9557 0.363999 69.7057 0.219999 70.5337 0.219999C71.6617 0.219999 72.5977 0.459999 73.3417 0.94C74.0857 1.42 74.6797 2.146 75.1237 3.118L73.0897 4.198C72.9097 3.634 72.6157 3.184 72.2077 2.848C71.7997 2.5 71.2417 2.326 70.5337 2.326C69.6457 2.326 68.9377 2.626 68.4097 3.226C67.8937 3.826 67.6357 4.666 67.6357 5.746V7.726C67.6357 8.818 67.8937 9.658 68.4097 10.246C68.9377 10.822 69.6457 11.11 70.5337 11.11C71.2417 11.11 71.8177 10.918 72.2617 10.534C72.7177 10.15 73.0477 9.676 73.2517 9.112L75.1777 10.246C74.7217 11.182 74.1157 11.914 73.3597 12.442C72.6037 12.958 71.6617 13.216 70.5337 13.216ZM77.2045 13V0.436H82.8565C83.4325 0.436 83.9485 0.532 84.4045 0.723999C84.8725 0.903999 85.2685 1.168 85.5925 1.516C85.9165 1.852 86.1625 2.26 86.3305 2.74C86.4985 3.22 86.5825 3.748 86.5825 4.324C86.5825 4.912 86.4985 5.446 86.3305 5.926C86.1625 6.394 85.9165 6.802 85.5925 7.15C85.2685 7.486 84.8725 7.75 84.4045 7.942C83.9485 8.122 83.4325 8.212 82.8565 8.212H79.5805V13H77.2045ZM79.5805 6.16H82.6405C83.0965 6.16 83.4565 6.04 83.7205 5.8C83.9845 5.548 84.1165 5.194 84.1165 4.738V3.91C84.1165 3.454 83.9845 3.106 83.7205 2.866C83.4565 2.626 83.0965 2.506 82.6405 2.506H79.5805V6.16ZM93.6138 13.216C92.7858 13.216 92.0358 13.084 91.3638 12.82C90.7038 12.544 90.1338 12.136 89.6538 11.596C89.1858 11.056 88.8258 10.39 88.5738 9.598C88.3218 8.794 88.1958 7.864 88.1958 6.808C88.1958 5.752 88.3218 4.816 88.5738 4C88.8258 3.172 89.1858 2.482 89.6538 1.93C90.1338 1.366 90.7038 0.939999 91.3638 0.651999C92.0358 0.363999 92.7858 0.219999 93.6138 0.219999C94.7418 0.219999 95.6778 0.459999 96.4218 0.94C97.1658 1.42 97.7598 2.146 98.2038 3.118L96.1698 4.198C95.9898 3.634 95.6958 3.184 95.2878 2.848C94.8798 2.5 94.3218 2.326 93.6138 2.326C92.7258 2.326 92.0178 2.626 91.4898 3.226C90.9738 3.826 90.7158 4.666 90.7158 5.746V7.726C90.7158 8.818 90.9738 9.658 91.4898 10.246C92.0178 10.822 92.7258 11.11 93.6138 11.11C94.3218 11.11 94.8978 10.918 95.3418 10.534C95.7978 10.15 96.1278 9.676 96.3318 9.112L98.2578 10.246C97.8018 11.182 97.1958 11.914 96.4398 12.442C95.6838 12.958 94.7418 13.216 93.6138 13.216Z" fill="#FBF6F1"/>
</svg>
