<svg width="24" height="24" viewBox="0 0 24 24" fill="white" xmlns="http://www.w3.org/2000/svg">
	<path d="M6 18H9C9.66667 18.1144 10 18.4477 10 19C10 19.5523 9.66667 19.8856 9 20H4V15C4 14.3333 4.33333 14 5 14C5.66667 14 6 14.3333 6 15V18ZM18 18V15C18.1144 14.3333 18.4477 14 19 14C19.5523 14 19.8856 14.3333 20 15V20H15C14.3333 20 14 19.6667 14 19C14 18.3333 14.3333 18 15 18H18ZM18 6H15C14.3333 5.88562 14 5.55228 14 5C14 4.44772 14.3333 4.11438 15 4H20V9C20 9.66667 19.6667 10 19 10C18.3333 10 18 9.66667 18 9V6ZM6 6V9C5.88562 9.66667 5.55228 10 5 10C4.44772 10 4.11438 9.66667 4 9V4H9C9.66667 4 10 4.33333 10 5C10 5.66667 9.66667 6 9 6H6Z" fill="white"/>
</svg>
