<svg width="165" height="14" viewBox="0 0 165 14" fill="none" xmlns="http://www.w3.org/2000/svg">
<path d="M9.962 3.982H9.89L8.918 5.98L6.344 10.732L3.77 5.98L2.798 3.982H2.726V13H0.476V0.436H3.158L6.38 6.574H6.452L9.638 0.436H12.212V13H9.962V3.982ZM22.9473 13L21.9393 9.796H17.4753L16.4853 13H14.0733L18.2853 0.436H21.2373L25.4133 13H22.9473ZM19.7433 2.596H19.6533L18.0513 7.762H21.3633L19.7433 2.596ZM27.2651 13V0.436H32.9171C33.4931 0.436 34.0091 0.532 34.4651 0.723999C34.9331 0.903999 35.3291 1.168 35.6531 1.516C35.9771 1.852 36.2231 2.26 36.3911 2.74C36.5591 3.22 36.6431 3.748 36.6431 4.324C36.6431 4.912 36.5591 5.446 36.3911 5.926C36.2231 6.394 35.9771 6.802 35.6531 7.15C35.3291 7.486 34.9331 7.75 34.4651 7.942C34.0091 8.122 33.4931 8.212 32.9171 8.212H29.6411V13H27.2651ZM29.6411 6.16H32.7011C33.1571 6.16 33.5171 6.04 33.7811 5.8C34.0451 5.548 34.1771 5.194 34.1771 4.738V3.91C34.1771 3.454 34.0451 3.106 33.7811 2.866C33.5171 2.626 33.1571 2.506 32.7011 2.506H29.6411V6.16ZM42.6182 8.662V6.376H47.7662V8.662H42.6182ZM58.4523 13.216C57.3723 13.216 56.4543 13.024 55.6983 12.64C54.9543 12.256 54.3123 11.752 53.7723 11.128L55.3743 9.58C55.8063 10.084 56.2863 10.468 56.8143 10.732C57.3543 10.996 57.9483 11.128 58.5963 11.128C59.3283 11.128 59.8803 10.972 60.2523 10.66C60.6243 10.336 60.8103 9.904 60.8103 9.364C60.8103 8.944 60.6903 8.602 60.4503 8.338C60.2103 8.074 59.7603 7.882 59.1003 7.762L57.9123 7.582C55.4043 7.186 54.1503 5.968 54.1503 3.928C54.1503 3.364 54.2523 2.854 54.4563 2.398C54.6723 1.942 54.9783 1.552 55.3743 1.228C55.7703 0.903999 56.2443 0.657999 56.7963 0.489999C57.3603 0.309999 57.9963 0.219999 58.7043 0.219999C59.6523 0.219999 60.4803 0.375999 61.1883 0.688C61.8963 0.999999 62.5023 1.462 63.0063 2.074L61.3863 3.604C61.0743 3.22 60.6963 2.908 60.2523 2.668C59.8083 2.428 59.2503 2.308 58.5783 2.308C57.8943 2.308 57.3783 2.44 57.0303 2.704C56.6943 2.956 56.5263 3.316 56.5263 3.784C56.5263 4.264 56.6643 4.618 56.9403 4.846C57.2163 5.074 57.6603 5.242 58.2723 5.35L59.4423 5.566C60.7143 5.794 61.6503 6.202 62.2503 6.79C62.8623 7.366 63.1683 8.176 63.1683 9.22C63.1683 9.82 63.0603 10.366 62.8443 10.858C62.6403 11.338 62.3343 11.758 61.9263 12.118C61.5303 12.466 61.0383 12.736 60.4503 12.928C59.8743 13.12 59.2083 13.216 58.4523 13.216ZM67.8002 0.436V8.158C67.8002 9.142 67.9862 9.88 68.3582 10.372C68.7422 10.864 69.3842 11.11 70.2842 11.11C71.1842 11.11 71.8202 10.864 72.1922 10.372C72.5762 9.88 72.7682 9.142 72.7682 8.158V0.436H75.1082V7.852C75.1082 8.776 75.0182 9.574 74.8382 10.246C74.6702 10.918 74.3942 11.476 74.0102 11.92C73.6262 12.364 73.1222 12.694 72.4982 12.91C71.8862 13.114 71.1422 13.216 70.2662 13.216C69.3782 13.216 68.6282 13.114 68.0162 12.91C67.4162 12.694 66.9242 12.364 66.5402 11.92C66.1562 11.476 65.8802 10.918 65.7122 10.246C65.5442 9.574 65.4602 8.776 65.4602 7.852V0.436H67.8002ZM77.978 13V0.436H83.63C84.206 0.436 84.722 0.532 85.178 0.723999C85.646 0.903999 86.042 1.168 86.366 1.516C86.69 1.852 86.936 2.26 87.104 2.74C87.272 3.22 87.356 3.748 87.356 4.324C87.356 4.912 87.272 5.446 87.104 5.926C86.936 6.394 86.69 6.802 86.366 7.15C86.042 7.486 85.646 7.75 85.178 7.942C84.722 8.122 84.206 8.212 83.63 8.212H80.354V13H77.978ZM80.354 6.16H83.414C83.87 6.16 84.23 6.04 84.494 5.8C84.758 5.548 84.89 5.194 84.89 4.738V3.91C84.89 3.454 84.758 3.106 84.494 2.866C84.23 2.626 83.87 2.506 83.414 2.506H80.354V6.16ZM89.5092 13V0.436H97.7892V2.542H91.8852V5.584H97.1052V7.69H91.8852V10.894H97.7892V13H89.5092ZM102.678 13H100.302V0.436H105.972C106.548 0.436 107.064 0.526 107.52 0.705999C107.976 0.885999 108.36 1.15 108.672 1.498C108.996 1.834 109.242 2.242 109.41 2.722C109.59 3.202 109.68 3.736 109.68 4.324C109.68 5.188 109.482 5.932 109.086 6.556C108.702 7.18 108.12 7.624 107.34 7.888L109.914 13H107.268L104.928 8.158H102.678V13ZM105.738 6.16C106.194 6.16 106.554 6.04 106.818 5.8C107.082 5.548 107.214 5.194 107.214 4.738V3.91C107.214 3.454 107.082 3.106 106.818 2.866C106.554 2.626 106.194 2.506 105.738 2.506H102.678V6.16H105.738ZM114.644 13L110.54 0.436H112.97L114.896 6.556L116.012 10.732H116.066L117.164 6.556L119.09 0.436H121.448L117.344 13H114.644ZM122.684 13V11.092H124.34V2.344H122.684V0.436H128.39V2.344H126.716V11.092H128.39V13H122.684ZM134.724 13.216C133.644 13.216 132.726 13.024 131.97 12.64C131.226 12.256 130.584 11.752 130.044 11.128L131.646 9.58C132.078 10.084 132.558 10.468 133.086 10.732C133.626 10.996 134.22 11.128 134.868 11.128C135.6 11.128 136.152 10.972 136.524 10.66C136.896 10.336 137.082 9.904 137.082 9.364C137.082 8.944 136.962 8.602 136.722 8.338C136.482 8.074 136.032 7.882 135.372 7.762L134.184 7.582C131.676 7.186 130.422 5.968 130.422 3.928C130.422 3.364 130.524 2.854 130.728 2.398C130.944 1.942 131.25 1.552 131.646 1.228C132.042 0.903999 132.516 0.657999 133.068 0.489999C133.632 0.309999 134.268 0.219999 134.976 0.219999C135.924 0.219999 136.752 0.375999 137.46 0.688C138.168 0.999999 138.774 1.462 139.278 2.074L137.658 3.604C137.346 3.22 136.968 2.908 136.524 2.668C136.08 2.428 135.522 2.308 134.85 2.308C134.166 2.308 133.65 2.44 133.302 2.704C132.966 2.956 132.798 3.316 132.798 3.784C132.798 4.264 132.936 4.618 133.212 4.846C133.488 5.074 133.932 5.242 134.544 5.35L135.714 5.566C136.986 5.794 137.922 6.202 138.522 6.79C139.134 7.366 139.44 8.176 139.44 9.22C139.44 9.82 139.332 10.366 139.116 10.858C138.912 11.338 138.606 11.758 138.198 12.118C137.802 12.466 137.31 12.736 136.722 12.928C136.146 13.12 135.48 13.216 134.724 13.216ZM146.754 13.216C145.926 13.216 145.176 13.078 144.504 12.802C143.832 12.526 143.256 12.112 142.776 11.56C142.308 11.008 141.942 10.33 141.678 9.526C141.414 8.722 141.282 7.786 141.282 6.718C141.282 5.662 141.414 4.732 141.678 3.928C141.942 3.112 142.308 2.428 142.776 1.876C143.256 1.324 143.832 0.909999 144.504 0.633999C145.176 0.357999 145.926 0.219999 146.754 0.219999C147.582 0.219999 148.332 0.357999 149.004 0.633999C149.676 0.909999 150.252 1.324 150.732 1.876C151.212 2.428 151.578 3.112 151.83 3.928C152.094 4.732 152.226 5.662 152.226 6.718C152.226 7.786 152.094 8.722 151.83 9.526C151.578 10.33 151.212 11.008 150.732 11.56C150.252 12.112 149.676 12.526 149.004 12.802C148.332 13.078 147.582 13.216 146.754 13.216ZM146.754 11.11C147.654 11.11 148.368 10.81 148.896 10.21C149.436 9.61 149.706 8.77 149.706 7.69V5.746C149.706 4.666 149.436 3.826 148.896 3.226C148.368 2.626 147.654 2.326 146.754 2.326C145.854 2.326 145.134 2.626 144.594 3.226C144.066 3.826 143.802 4.666 143.802 5.746V7.69C143.802 8.77 144.066 9.61 144.594 10.21C145.134 10.81 145.854 11.11 146.754 11.11ZM157.012 13H154.636V0.436H160.306C160.882 0.436 161.398 0.526 161.854 0.705999C162.31 0.885999 162.694 1.15 163.006 1.498C163.33 1.834 163.576 2.242 163.744 2.722C163.924 3.202 164.014 3.736 164.014 4.324C164.014 5.188 163.816 5.932 163.42 6.556C163.036 7.18 162.454 7.624 161.674 7.888L164.248 13H161.602L159.262 8.158H157.012V13ZM160.072 6.16C160.528 6.16 160.888 6.04 161.152 5.8C161.416 5.548 161.548 5.194 161.548 4.738V3.91C161.548 3.454 161.416 3.106 161.152 2.866C160.888 2.626 160.528 2.506 160.072 2.506H157.012V6.16H160.072Z" fill="#F3F7F8"/>
</svg>
