<svg width="24" height="24" viewBox="0 0 24 24" fill="none" xmlns="http://www.w3.org/2000/svg">
<path d="M11.2929 17.2929C10.9024 17.6834 10.9024 18.3166 11.2929 18.7071C11.6834 19.0976 12.3166 19.0976 12.7071 18.7071L18.7071 12.7071C19.0857 12.3285 19.0989 11.7189 18.7372 11.3243L13.2372 5.32428C12.864 4.91716 12.2314 4.88965 11.8243 5.26285C11.4172 5.63604 11.3897 6.26861 11.7628 6.67572L16.6159 11.9699L11.2929 17.2929Z" fill="#1F877A"/>
<path opacity="0.3" d="M4.29289 17.2929C3.90237 17.6834 3.90237 18.3166 4.29289 18.7071C4.68342 19.0976 5.31658 19.0976 5.70711 18.7071L11.7071 12.7071C12.0857 12.3285 12.0989 11.7189 11.7372 11.3243L6.23715 5.32428C5.86396 4.91716 5.23139 4.88965 4.82428 5.26285C4.41716 5.63604 4.38965 6.2686 4.76285 6.67572L9.61586 11.9699L4.29289 17.2929Z" fill="#1F877A"/>
</svg>
