<svg width="48" height="48" viewBox="0 0 48 48" fill="none" xmlns="http://www.w3.org/2000/svg">
<rect width="48" height="48" rx="8" fill="#C9F3EA"/>
<path fill-rule="evenodd" clip-rule="evenodd" d="M26.2473 32.9445C29.2151 31.7588 32.9104 30.9996 37.3333 30.6669C37.3333 30.5769 37.3333 25.4686 37.3333 15.3419H37.3332C37.3332 14.9738 37.0348 14.6753 36.6666 14.6753C36.661 14.6753 36.6553 14.6754 36.6497 14.6755C32.8776 14.771 29.1054 15.657 25.3333 17.3335C25.3333 17.3928 25.3333 22.3901 25.3333 32.3254H25.3333C25.3333 32.6936 25.6317 32.9921 25.9999 32.9921C26.0847 32.9921 26.1686 32.9759 26.2473 32.9445Z" fill="#1F877A"/>
<path opacity="0.3" fill-rule="evenodd" clip-rule="evenodd" d="M21.7527 32.9445C18.7849 31.7588 15.0896 30.9996 10.6667 30.6669C10.6667 30.5769 10.6667 25.4686 10.6667 15.3419H10.6668C10.6668 14.9738 10.9652 14.6753 11.3334 14.6753C11.339 14.6753 11.3447 14.6754 11.3503 14.6755C15.1224 14.771 18.8946 15.657 22.6667 17.3335C22.6667 17.3928 22.6667 22.3901 22.6667 32.3254H22.6668C22.6668 32.6936 22.3683 32.9921 22.0001 32.9921C21.9154 32.9921 21.8314 32.9759 21.7527 32.9445Z" fill="#1F877A"/>
</svg>
