<svg width="24" height="24" viewBox="0 0 24 24" fill="none" xmlns="http://www.w3.org/2000/svg">
<path d="M16.2433 6.34311L6.34383 16.2426C5.9533 16.6331 5.9533 17.2663 6.34383 17.6568C6.73435 18.0473 7.36751 18.0473 7.75804 17.6568L17.6575 7.75732C18.0481 7.36679 18.0481 6.73363 17.6575 6.34311C17.267 5.95258 16.6338 5.95258 16.2433 6.34311Z" fill="#F4A261"/>
<path d="M17.6574 16.2428L7.75789 6.34334C7.36736 5.95281 6.7342 5.95281 6.34367 6.34334C5.95315 6.73386 5.95315 7.36703 6.34367 7.75755L16.2432 17.657C16.6337 18.0476 17.2669 18.0476 17.6574 17.657C18.0479 17.2665 18.0479 16.6334 17.6574 16.2428Z" fill="#F4A261"/>
</svg>
