<svg width="64" height="64" viewBox="0 0 64 64" fill="none" xmlns="http://www.w3.org/2000/svg">
<path opacity="0.3" d="M31.9997 58.6668C46.7273 58.6668 58.6663 46.7278 58.6663 32.0002C58.6663 17.2726 46.7273 5.3335 31.9997 5.3335C17.2721 5.3335 5.33301 17.2726 5.33301 32.0002C5.33301 46.7278 17.2721 58.6668 31.9997 58.6668Z" fill="#1F877A"/>
<path d="M44.7172 20.8472C45.7221 19.7705 47.4096 19.7123 48.4862 20.7172C49.5629 21.7221 49.6211 23.4095 48.6162 24.4862L29.9495 44.4862C28.9746 45.5308 27.3495 45.6213 26.2646 44.6914L16.9313 36.6914C15.8131 35.7329 15.6836 34.0494 16.642 32.9312C17.6005 31.813 19.284 31.6835 20.4022 32.642L27.7947 38.9785L44.7172 20.8472Z" fill="#1F877A"/>
</svg>
