<svg width="40" height="40" viewBox="0 0 40 40" fill="none" xmlns="http://www.w3.org/2000/svg">
<path opacity="0.3" d="M9.76174 3.3335H22.8939C23.485 3.3335 24.057 3.54297 24.5084 3.92473L32.4477 10.6401C33.0093 11.1151 33.3332 11.8133 33.3332 12.5488V33.4724C33.3332 36.4566 33.2991 36.6668 30.2379 36.6668H9.76174C6.70058 36.6668 6.6665 36.4566 6.6665 33.4724V6.52794C6.6665 3.5437 6.70058 3.3335 9.76174 3.3335Z" fill="#1F877A"/>
<path d="M23.3333 18.3335H11.6667C10.7462 18.3335 10 19.0797 10 20.0002C10 20.9206 10.7462 21.6668 11.6667 21.6668H23.3333C24.2538 21.6668 25 20.9206 25 20.0002C25 19.0797 24.2538 18.3335 23.3333 18.3335Z" fill="#1F877A"/>
<path d="M16.6667 25H11.6667C10.7462 25 10 25.7462 10 26.6667C10 27.5871 10.7462 28.3333 11.6667 28.3333H16.6667C17.5871 28.3333 18.3333 27.5871 18.3333 26.6667C18.3333 25.7462 17.5871 25 16.6667 25Z" fill="#1F877A"/>
</svg>
