<svg width="24" height="24" viewBox="0 0 24 24" fill="none" xmlns="http://www.w3.org/2000/svg">
<path fill-rule="evenodd" clip-rule="evenodd" d="M3 4H20C20.5523 4 21 4.44772 21 5V7C21 7.55228 20.5523 8 20 8H3C2.44772 8 2 7.55228 2 7V5C2 4.44772 2.44772 4 3 4ZM10 10H20C20.5523 10 21 10.4477 21 11V19C21 19.5523 20.5523 20 20 20H10C9.44772 20 9 19.5523 9 19V11C9 10.4477 9.44772 10 10 10Z" fill="#1F877A"/>
<path opacity="0.3" d="M6 10H3C2.44772 10 2 10.4477 2 11V19C2 19.5523 2.44772 20 3 20H6C6.55228 20 7 19.5523 7 19V11C7 10.4477 6.55228 10 6 10Z" fill="#1F877A"/>
</svg>
