<svg width="175" height="116" viewBox="0 0 175 116" fill="none" xmlns="http://www.w3.org/2000/svg">
<path d="M121.415 -87.983C69.3792 145.953 200.04 68.3963 167.519 226.361" stroke="#6FCF97" stroke-width="0.5"/>
<path d="M115.859 -87.8414C63.8233 146.095 194.484 68.5379 161.963 226.502" stroke="#6FCF97" stroke-width="0.5"/>
<path d="M110.303 -87.7003C58.2672 146.236 188.928 68.679 156.407 226.644" stroke="#6FCF97" stroke-width="0.5"/>
<path d="M104.747 -87.5592C52.7116 146.377 183.373 68.8201 150.851 226.785" stroke="#6FCF97" stroke-width="0.5"/>
<path d="M99.1912 -87.4181C47.1558 146.518 177.817 68.9612 145.295 226.926" stroke="#6FCF97" stroke-width="0.5"/>
<path d="M93.6355 -87.2769C41.6001 146.659 172.261 69.1023 139.74 227.067" stroke="#6FCF97" stroke-width="0.5"/>
<path d="M88.0799 -87.1363C36.0445 146.8 166.705 69.243 134.184 227.208" stroke="#6FCF97" stroke-width="0.5"/>
<path d="M82.524 -86.9947C30.4885 146.941 161.15 69.3846 128.628 227.349" stroke="#6FCF97" stroke-width="0.5"/>
<path d="M76.9683 -86.8541C24.9329 147.082 155.594 69.5252 123.072 227.49" stroke="#6FCF97" stroke-width="0.5"/>
<path d="M71.4123 -86.713C19.3769 147.223 150.038 69.6663 117.516 227.631" stroke="#6FCF97" stroke-width="0.5"/>
<path d="M65.8565 -86.5714C13.8211 147.365 144.482 69.8079 111.961 227.772" stroke="#6FCF97" stroke-width="0.5"/>
<path d="M60.3006 -86.4303C8.26516 147.506 138.926 69.949 106.405 227.914" stroke="#6FCF97" stroke-width="0.5"/>
<path d="M54.7449 -86.2892C2.7095 147.647 133.371 70.0901 100.849 228.055" stroke="#6FCF97" stroke-width="0.5"/>
<path d="M49.1894 -86.1485C-2.84605 147.788 127.815 70.2308 95.2935 228.195" stroke="#6FCF97" stroke-width="0.5"/>
<path d="M43.6335 -86.0069C-8.40195 147.929 122.259 70.3724 89.7376 228.337" stroke="#6FCF97" stroke-width="0.5"/>
<path d="M38.0778 -85.8663C-13.9576 148.07 116.703 70.513 84.182 228.478" stroke="#6FCF97" stroke-width="0.5"/>
<path d="M32.5218 -85.7252C-19.5136 148.211 111.147 70.6541 78.6259 228.619" stroke="#6FCF97" stroke-width="0.5"/>
<path d="M26.9659 -85.5836C-25.0696 148.353 105.591 70.7957 73.07 228.76" stroke="#6FCF97" stroke-width="0.5"/>
<path d="M21.4102 -85.443C-30.6252 148.493 100.036 70.9363 67.5143 228.901" stroke="#6FCF97" stroke-width="0.5"/>
<path d="M15.8547 -85.3018C-36.1808 148.634 94.4803 71.0774 61.9588 229.042" stroke="#6FCF97" stroke-width="0.5"/>
</svg>
