<svg width="24" height="24" viewBox="0 0 24 24" fill="none" xmlns="http://www.w3.org/2000/svg">
<path d="M16.0322 5.68723L5.75793 15.9457C5.12142 16.5813 5.12063 17.6125 5.75616 18.249C5.75646 18.2493 5.75675 18.2496 5.75705 18.2499C6.39307 18.8859 7.42427 18.8859 8.0603 18.2499C8.06059 18.2496 8.06089 18.2493 8.06118 18.249L18.3197 7.9747C18.9505 7.34289 18.9501 6.31943 18.3188 5.68811C17.6875 5.05678 16.664 5.05639 16.0322 5.68723Z" fill="white"/>
<path opacity="0.3" fill-rule="evenodd" clip-rule="evenodd" d="M9.85714 6.92857C9.85714 8.54731 8.54695 9.85714 6.93006 9.85714C5.31317 9.85714 4 8.54731 4 6.92857C4 5.30984 5.31317 4 6.93006 4C8.54695 4 9.85714 5.30984 9.85714 6.92857ZM20 17.0714C20 18.6902 18.6898 20 17.0729 20C15.456 20 14.1429 18.6902 14.1429 17.0714C14.1429 15.4497 15.456 14.1429 17.0729 14.1429C18.6898 14.1429 20 15.4497 20 17.0714Z" fill="white"/>
</svg>
