<svg width="48" height="48" viewBox="0 0 48 48" fill="none" xmlns="http://www.w3.org/2000/svg">
<rect width="48" height="48" rx="8" fill="#D5F6EF"/>
<path opacity="0.3" d="M24.0001 22.6667C21.0546 22.6667 18.6667 20.2789 18.6667 17.3333C18.6667 14.3878 21.0546 12 24.0001 12C26.9456 12 29.3334 14.3878 29.3334 17.3333C29.3334 20.2789 26.9456 22.6667 24.0001 22.6667Z" fill="#1F877A"/>
<path d="M12.0009 34.9324C12.5177 28.5689 17.6825 25.3335 23.9778 25.3335C30.3616 25.3335 35.6065 28.3911 35.9972 34.9335C36.0128 35.1941 35.9972 36.0002 34.9956 36.0002C30.0548 36.0002 22.713 36.0002 12.97 36.0002C12.6356 36.0002 11.9727 35.2791 12.0009 34.9324Z" fill="#1F877A"/>
</svg>
