<svg width="24" height="24" viewBox="0 0 24 24" fill="none" xmlns="http://www.w3.org/2000/svg">
<path opacity="0.3" d="M5.85714 2H13.7364C14.0911 2 14.4343 2.12568 14.7051 2.35474L19.4687 6.38394C19.8057 6.66895 20 7.08788 20 7.5292V20.0833C20 21.8739 19.9796 22 18.1429 22H5.85714C4.02045 22 4 21.8739 4 20.0833V3.91667C4 2.12612 4.02045 2 5.85714 2Z" fill="#A9B3BE"/>
<path opacity="0.3" d="M8.45372 10.4352L7.29205 11.5969C6.99916 11.8898 6.99916 12.3646 7.29205 12.6575L8.45372 13.8192C8.74662 14.1121 9.22149 14.1121 9.51439 13.8192L10.6761 12.6575C10.969 12.3646 10.969 11.8898 10.6761 11.5969L9.51438 10.4352C9.22149 10.1423 8.74662 10.1423 8.45372 10.4352Z" fill="#A9B3BE"/>
<path opacity="0.3" d="M14.7399 10.4352L13.5782 11.5969C13.2853 11.8898 13.2853 12.3646 13.5782 12.6575L14.7399 13.8192C15.0328 14.1121 15.5076 14.1121 15.8005 13.8192L16.9622 12.6575C17.2551 12.3646 17.2551 11.8898 16.9622 11.5969L15.8005 10.4352C15.5076 10.1423 15.0327 10.1423 14.7399 10.4352Z" fill="#A9B3BE"/>
<path d="M11.5968 13.578L10.4351 14.7397C10.1422 15.0326 10.1422 15.5075 10.4351 15.8003L11.5968 16.962C11.8897 17.2549 12.3646 17.2549 12.6575 16.962L13.8191 15.8003C14.112 15.5075 14.112 15.0326 13.8191 14.7397L12.6575 13.578C12.3646 13.2851 11.8897 13.2851 11.5968 13.578Z" fill="#A9B3BE"/>
<path d="M11.5968 7.29213L10.4351 8.4538C10.1422 8.74669 10.1422 9.22157 10.4351 9.51446L11.5968 10.6761C11.8897 10.969 12.3646 10.969 12.6575 10.6761L13.8191 9.51446C14.112 9.22157 14.112 8.74669 13.8191 8.4538L12.6575 7.29213C12.3646 6.99923 11.8897 6.99923 11.5968 7.29213Z" fill="#A9B3BE"/>
</svg>
