<svg width="24" height="24" viewBox="0 0 24 24" fill="none" xmlns="http://www.w3.org/2000/svg">
<path opacity="0.3" d="M12 22C17.5228 22 22 17.5228 22 12C22 6.47715 17.5228 2 12 2C6.47715 2 2 6.47715 2 12C2 17.5228 6.47715 22 12 22Z" fill="#1F877A"/>
<path fill-rule="evenodd" clip-rule="evenodd" d="M11.9999 15.9999C12.5522 15.9999 12.9999 16.4476 12.9999 16.9999C12.9999 17.5522 12.5522 17.9999 11.9999 17.9999C11.4477 17.9999 10.9999 17.5522 10.9999 16.9999C10.9999 16.4476 11.4477 15.9999 11.9999 15.9999ZM10.5909 14.8679V13.2089H11.8509C13.4469 13.2089 14.6019 11.9909 14.6019 10.3949C14.6019 8.79888 13.4469 7.58087 11.8509 7.58087C10.2339 7.58087 9.12094 8.79888 9.12094 10.3949H7.33594C7.33594 7.87488 9.30994 5.92188 11.8509 5.92188C14.3919 5.92188 16.3869 7.87488 16.3869 10.3949C16.3869 12.9149 14.3919 14.8679 11.8509 14.8679H10.5909Z" fill="#1F877A"/>
</svg>
